<?xml version="1.0" encoding="UTF-8" standalone="no"?>
<!DOCTYPE svg PUBLIC "-//W3C//DTD SVG 1.1//EN" "http://www.w3.org/Graphics/SVG/1.1/DTD/svg11.dtd">
<svg xmlns="http://www.w3.org/2000/svg" version="1.1" viewBox="0.00 0.00 500.00 200.00">
<g stroke-width="2.00" fill="none" stroke-linecap="butt">
<path stroke="#cacacb" vector-effect="non-scaling-stroke" d="
  M 60.31 31.39
  Q 60.55 31.09 60.60 30.77
  Q 60.68 30.25 60.15 30.27
  Q 58.67 30.33 58.35 29.14
  Q 56.95 23.93 59.81 18.55
  Q 59.94 18.31 59.68 18.22
  L 59.38 18.11
  Q 59.35 18.10 59.75 17.53
  Q 60.03 17.14 60.16 17.56
  Q 60.35 18.17 60.75 17.67
  Q 61.07 17.28 60.72 16.46"
/>
<path stroke="#d3d3d4" vector-effect="non-scaling-stroke" d="
  M 129.24 176.03
  Q 128.44 178.67 131.54 179.08"
/>
<path stroke="#e8e8e8" vector-effect="non-scaling-stroke" d="
  M 124.24 42.87
  L 124.13 44.04
  A 0.23 0.23 0.0 0 1 123.83 44.24
  L 123.38 44.10
  A 0.10 0.10 0.0 0 0 123.25 44.18
  Q 122.07 51.87 126.84 57.87
  Q 127.71 58.97 126.67 59.91
  L 108.15 76.77
  A 0.77 0.76 28.5 0 1 107.49 76.96
  L 102.43 76.08"
/>
<path stroke="#cacacb" vector-effect="non-scaling-stroke" d="
  M 102.43 76.08
  Q 103.44 74.96 100.69 72.56
  Q 100.31 72.23 100.20 71.75
  Q 97.63 60.80 88.00 56.05
  Q 83.37 53.77 80.52 51.78
  A 1.14 1.13 14.8 0 1 80.04 50.96
  Q 79.47 44.11 80.73 36.67"
/>
<path stroke="#d3d3d4" vector-effect="non-scaling-stroke" d="
  M 102.43 76.08
  L 90.44 74.73
  A 0.83 0.82 28.7 0 1 90.01 73.27
  Q 92.30 71.44 92.63 68.57
  A 1.19 1.17 -60.5 0 0 92.40 67.71
  C 89.17 63.39 84.30 70.68 82.57 72.97
  A 1.34 1.33 -66.1 0 1 81.26 73.48
  L 70.22 71.49
  A 0.49 0.48 25.1 0 1 69.93 70.70
  L 71.95 68.27
  A 2.55 2.55 0.0 0 0 71.97 65.03
  C 69.01 61.33 64.78 67.50 62.69 69.60
  A 2.48 2.48 0.0 0 1 60.58 70.30
  C 56.66 69.71 48.87 67.70 45.32 69.40
  Q 42.26 70.87 40.44 74.07
  A 0.67 0.66 23.6 0 0 40.82 75.03
  Q 58.81 80.78 76.01 88.69
  Q 83.10 91.96 86.76 97.93
  A 1.43 1.43 0.0 0 1 86.90 99.09
  Q 85.66 102.95 81.85 106.86
  Q 74.07 114.84 66.35 122.45
  A 2.02 2.00 26.0 0 1 64.69 123.01
  L 46.41 120.67
  A 1.39 1.39 0.0 0 0 45.40 120.94
  L 40.08 124.94
  Q 39.52 125.37 40.13 125.71
  L 55.99 134.67
  A 1.08 1.07 -57.8 0 1 56.34 136.23
  L 54.75 138.45
  A 0.48 0.47 -86.3 0 0 55.36 139.15
  L 58.45 137.49
  A 0.60 0.60 0.0 0 1 59.26 137.73
  L 61.30 141.52"
/>
<path stroke="#bebebf" vector-effect="non-scaling-stroke" d="
  M 61.30 141.52
  Q 61.70 142.68 60.57 143.36
  A 2.22 2.22 0.0 0 0 59.50 145.09
  Q 58.84 153.16 59.24 161.25
  Q 59.27 161.70 59.59 162.02
  Q 61.14 163.58 59.85 165.75"
/>
<path stroke="#e8e8e8" vector-effect="non-scaling-stroke" d="
  M 126.49 165.55
  Q 123.69 163.20 125.58 158.36
  Q 126.55 155.90 129.36 150.89
  Q 129.38 150.84 132.78 145.15
  Q 148.82 118.28 141.88 87.25
  Q 139.66 77.30 134.17 67.69
  Q 133.95 67.31 133.67 67.65
  Q 126.54 76.36 118.40 84.15
  C 117.54 84.97 117.13 85.79 117.31 87.06
  Q 118.49 95.66 119.65 104.06
  A 0.65 0.64 64.8 0 0 120.72 104.45
  L 123.68 101.74
  A 2.41 2.40 42.5 0 1 126.76 101.61
  C 130.43 104.41 122.81 110.16 120.80 112.02
  Q 120.44 112.35 120.53 112.83
  L 122.53 124.18
  A 0.74 0.73 65.2 0 0 123.72 124.62
  L 127.02 121.91
  A 1.96 1.96 0.0 0 1 129.84 122.26
  C 132.29 125.57 126.55 129.92 124.30 132.02
  A 2.69 2.67 65.8 0 0 123.47 134.24
  C 123.90 138.42 126.24 145.17 125.11 148.73
  Q 123.96 152.36 119.97 154.22
  Q 119.46 154.46 119.28 153.93
  L 111.98 132.72"
/>
<path stroke="#dcdcdc" vector-effect="non-scaling-stroke" d="
  M 111.98 132.72
  Q 106.90 117.87 104.88 113.14
  Q 102.96 108.66 98.52 108.04
  C 95.17 107.57 89.78 110.55 87.61 112.61
  Q 79.73 120.10 71.60 128.11
  A 2.09 2.05 -26.7 0 0 71.00 129.88
  L 73.35 146.99
  A 2.45 2.43 59.4 0 1 72.90 148.78
  L 69.06 154.02
  Q 68.61 154.64 68.24 153.97
  L 61.30 141.52"
/>
<path stroke="#d3d3d3" vector-effect="non-scaling-stroke" d="
  M 96.40 173.99
  Q 99.29 173.92 95.35 171.13
  A 1.09 1.07 -72.6 0 1 94.90 170.25
  L 94.90 162.83
  Q 94.90 162.31 95.39 162.13
  L 96.46 161.74
  A 0.66 0.65 -8.9 0 0 96.89 161.16
  Q 96.95 159.89 98.26 159.88
  Q 98.84 159.88 98.88 159.30
  Q 98.93 158.59 99.38 158.38
  Q 103.32 156.50 106.24 153.23
  Q 106.40 153.04 106.77 152.93
  Q 107.20 152.80 107.43 152.42
  Q 108.11 151.30 109.96 149.85
  Q 113.53 147.03 113.53 142.38
  C 113.53 139.11 111.21 136.70 111.98 132.72"
/>
</g>
<path fill="#dfdfdf" d="
  M 60.31 31.39
  Q 60.55 31.09 60.60 30.77
  Q 60.68 30.25 60.15 30.27
  Q 58.67 30.33 58.35 29.14
  Q 56.95 23.93 59.81 18.55
  Q 59.94 18.31 59.68 18.22
  L 59.38 18.11
  Q 59.35 18.10 59.75 17.53
  Q 60.03 17.14 60.16 17.56
  Q 60.35 18.17 60.75 17.67
  Q 61.07 17.28 60.72 16.46
  C 80.53 8.98 101.77 8.29 121.74 15.15
  Q 162.38 29.12 177.97 70.89
  A 0.55 0.55 0.0 0 1 177.58 71.61
  L 167.27 74.13
  A 0.72 0.71 -18.9 0 1 166.44 73.73
  C 147.73 32.47 102.46 13.75 60.31 31.39
  Z"
/>
<path fill="#b5b5b6" d="
  M 60.72 16.46
  Q 61.07 17.28 60.75 17.67
  Q 60.35 18.17 60.16 17.56
  Q 60.03 17.14 59.75 17.53
  Q 59.35 18.10 59.38 18.11
  L 59.68 18.22
  Q 59.94 18.31 59.81 18.55
  Q 56.95 23.93 58.35 29.14
  Q 58.67 30.33 60.15 30.27
  Q 60.68 30.25 60.60 30.77
  Q 60.55 31.09 60.31 31.39
  Q 26.96 47.24 16.10 80.88
  Q 12.95 90.63 12.45 100.48
  Q 11.55 118.28 18.15 134.71
  C 28.51 160.46 51.74 178.90 78.91 183.86
  Q 104.46 188.53 129.24 176.03
  Q 128.44 178.67 131.54 179.08
  C 102.09 192.95 67.45 189.74 41.35 171.12
  C 18.97 155.16 4.80 129.89 4.31 102.03
  C 4.15 93.06 4.66 84.52 7.14 75.90
  Q 19.27 33.67 60.72 16.46
  Z"
/>
<path fill="#dfdfdf" d="
  M 124.24 42.87
  L 124.13 44.04
  A 0.23 0.23 0.0 0 1 123.83 44.24
  L 123.38 44.10
  A 0.10 0.10 0.0 0 0 123.25 44.18
  Q 122.07 51.87 126.84 57.87
  Q 127.71 58.97 126.67 59.91
  L 108.15 76.77
  A 0.77 0.76 28.5 0 1 107.49 76.96
  L 102.43 76.08
  Q 103.44 74.96 100.69 72.56
  Q 100.31 72.23 100.20 71.75
  Q 97.63 60.80 88.00 56.05
  Q 83.37 53.77 80.52 51.78
  A 1.14 1.13 14.8 0 1 80.04 50.96
  Q 79.47 44.11 80.73 36.67
  Q 103.04 32.70 124.24 42.87
  Z"
/>
<path fill="#b5b5b6" d="
  M 80.73 36.67
  Q 79.47 44.11 80.04 50.96
  A 1.14 1.13 14.8 0 0 80.52 51.78
  Q 83.37 53.77 88.00 56.05
  Q 97.63 60.80 100.20 71.75
  Q 100.31 72.23 100.69 72.56
  Q 103.44 74.96 102.43 76.08
  L 90.44 74.73
  A 0.83 0.82 28.7 0 1 90.01 73.27
  Q 92.30 71.44 92.63 68.57
  A 1.19 1.17 -60.5 0 0 92.40 67.71
  C 89.17 63.39 84.30 70.68 82.57 72.97
  A 1.34 1.33 -66.1 0 1 81.26 73.48
  L 70.22 71.49
  A 0.49 0.48 25.1 0 1 69.93 70.70
  L 71.95 68.27
  A 2.55 2.55 0.0 0 0 71.97 65.03
  C 69.01 61.33 64.78 67.50 62.69 69.60
  A 2.48 2.48 0.0 0 1 60.58 70.30
  C 56.66 69.71 48.87 67.70 45.32 69.40
  Q 42.26 70.87 40.44 74.07
  A 0.67 0.66 23.6 0 0 40.82 75.03
  Q 58.81 80.78 76.01 88.69
  Q 83.10 91.96 86.76 97.93
  A 1.43 1.43 0.0 0 1 86.90 99.09
  Q 85.66 102.95 81.85 106.86
  Q 74.07 114.84 66.35 122.45
  A 2.02 2.00 26.0 0 1 64.69 123.01
  L 46.41 120.67
  A 1.39 1.39 0.0 0 0 45.40 120.94
  L 40.08 124.94
  Q 39.52 125.37 40.13 125.71
  L 55.99 134.67
  A 1.08 1.07 -57.8 0 1 56.34 136.23
  L 54.75 138.45
  A 0.48 0.47 -86.3 0 0 55.36 139.15
  L 58.45 137.49
  A 0.60 0.60 0.0 0 1 59.26 137.73
  L 61.30 141.52
  Q 61.70 142.68 60.57 143.36
  A 2.22 2.22 0.0 0 0 59.50 145.09
  Q 58.84 153.16 59.24 161.25
  Q 59.27 161.70 59.59 162.02
  Q 61.14 163.58 59.85 165.75
  C 37.10 153.37 23.52 129.68 23.79 103.98
  Q 23.90 94.00 26.95 84.31
  C 34.92 59.04 54.28 42.10 80.73 36.67
  Z"
/>
<path fill="#f1f1f1" d="
  M 124.24 42.87
  C 173.56 69.30 175.32 137.24 126.49 165.55
  Q 123.69 163.20 125.58 158.36
  Q 126.55 155.90 129.36 150.89
  Q 129.38 150.84 132.78 145.15
  Q 148.82 118.28 141.88 87.25
  Q 139.66 77.30 134.17 67.69
  Q 133.95 67.31 133.67 67.65
  Q 126.54 76.36 118.40 84.15
  C 117.54 84.97 117.13 85.79 117.31 87.06
  Q 118.49 95.66 119.65 104.06
  A 0.65 0.64 64.8 0 0 120.72 104.45
  L 123.68 101.74
  A 2.41 2.40 42.5 0 1 126.76 101.61
  C 130.43 104.41 122.81 110.16 120.80 112.02
  Q 120.44 112.35 120.53 112.83
  L 122.53 124.18
  A 0.74 0.73 65.2 0 0 123.72 124.62
  L 127.02 121.91
  A 1.96 1.96 0.0 0 1 129.84 122.26
  C 132.29 125.57 126.55 129.92 124.30 132.02
  A 2.69 2.67 65.8 0 0 123.47 134.24
  C 123.90 138.42 126.24 145.17 125.11 148.73
  Q 123.96 152.36 119.97 154.22
  Q 119.46 154.46 119.28 153.93
  L 111.98 132.72
  Q 106.90 117.87 104.88 113.14
  Q 102.96 108.66 98.52 108.04
  C 95.17 107.57 89.78 110.55 87.61 112.61
  Q 79.73 120.10 71.60 128.11
  A 2.09 2.05 -26.7 0 0 71.00 129.88
  L 73.35 146.99
  A 2.45 2.43 59.4 0 1 72.90 148.78
  L 69.06 154.02
  Q 68.61 154.64 68.24 153.97
  L 61.30 141.52
  L 59.26 137.73
  A 0.60 0.60 0.0 0 0 58.45 137.49
  L 55.36 139.15
  A 0.48 0.47 -86.3 0 1 54.75 138.45
  L 56.34 136.23
  A 1.08 1.07 -57.8 0 0 55.99 134.67
  L 40.13 125.71
  Q 39.52 125.37 40.08 124.94
  L 45.40 120.94
  A 1.39 1.39 0.0 0 1 46.41 120.67
  L 64.69 123.01
  A 2.02 2.00 26.0 0 0 66.35 122.45
  Q 74.07 114.84 81.85 106.86
  Q 85.66 102.95 86.90 99.09
  A 1.43 1.43 0.0 0 0 86.76 97.93
  Q 83.10 91.96 76.01 88.69
  Q 58.81 80.78 40.82 75.03
  A 0.67 0.66 23.6 0 1 40.44 74.07
  Q 42.26 70.87 45.32 69.40
  C 48.87 67.70 56.66 69.71 60.58 70.30
  A 2.48 2.48 0.0 0 0 62.69 69.60
  C 64.78 67.50 69.01 61.33 71.97 65.03
  A 2.55 2.55 0.0 0 1 71.95 68.27
  L 69.93 70.70
  A 0.49 0.48 25.1 0 0 70.22 71.49
  L 81.26 73.48
  A 1.34 1.33 -66.1 0 0 82.57 72.97
  C 84.30 70.68 89.17 63.39 92.40 67.71
  A 1.19 1.17 -60.5 0 1 92.63 68.57
  Q 92.30 71.44 90.01 73.27
  A 0.83 0.82 28.7 0 0 90.44 74.73
  L 102.43 76.08
  L 107.49 76.96
  A 0.77 0.76 28.5 0 0 108.15 76.77
  L 126.67 59.91
  Q 127.71 58.97 126.84 57.87
  Q 122.07 51.87 123.25 44.18
  A 0.10 0.10 0.0 0 1 123.38 44.10
  L 123.83 44.24
  A 0.23 0.23 0.0 0 0 124.13 44.04
  L 124.24 42.87
  Z"
/>
<path fill="#dfdfdf" d="
  M 126.49 165.55
  Q 112.32 173.33 96.40 173.99
  Q 99.29 173.92 95.35 171.13
  A 1.09 1.07 -72.6 0 1 94.90 170.25
  L 94.90 162.83
  Q 94.90 162.31 95.39 162.13
  L 96.46 161.74
  A 0.66 0.65 -8.9 0 0 96.89 161.16
  Q 96.95 159.89 98.26 159.88
  Q 98.84 159.88 98.88 159.30
  Q 98.93 158.59 99.38 158.38
  Q 103.32 156.50 106.24 153.23
  Q 106.40 153.04 106.77 152.93
  Q 107.20 152.80 107.43 152.42
  Q 108.11 151.30 109.96 149.85
  Q 113.53 147.03 113.53 142.38
  C 113.53 139.11 111.21 136.70 111.98 132.72
  L 119.28 153.93
  Q 119.46 154.46 119.97 154.22
  Q 123.96 152.36 125.11 148.73
  C 126.24 145.17 123.90 138.42 123.47 134.24
  A 2.69 2.67 65.8 0 1 124.30 132.02
  C 126.55 129.92 132.29 125.57 129.84 122.26
  A 1.96 1.96 0.0 0 0 127.02 121.91
  L 123.72 124.62
  A 0.74 0.73 65.2 0 1 122.53 124.18
  L 120.53 112.83
  Q 120.44 112.35 120.80 112.02
  C 122.81 110.16 130.43 104.41 126.76 101.61
  A 2.41 2.40 42.5 0 0 123.68 101.74
  L 120.72 104.45
  A 0.65 0.64 64.8 0 1 119.65 104.06
  Q 118.49 95.66 117.31 87.06
  C 117.13 85.79 117.54 84.97 118.40 84.15
  Q 126.54 76.36 133.67 67.65
  Q 133.95 67.31 134.17 67.69
  Q 139.66 77.30 141.88 87.25
  Q 148.82 118.28 132.78 145.15
  Q 129.38 150.84 129.36 150.89
  Q 126.55 155.90 125.58 158.36
  Q 123.69 163.20 126.49 165.55
  Z"
/>
<circle fill="#f1f1f1" cx="336.50" cy="77.03" r="6.37"/>
<circle fill="#f1f1f1" cx="219.68" cy="77.05" r="6.34"/>
<circle fill="#f1f1f1" cx="280.69" cy="77.04" r="6.34"/>
<path fill="#f1f1f1" d="
  M 256.85 92.33
  L 257.13 90.64
  Q 257.22 90.02 257.85 90.02
  L 266.52 90.00
  A 1.02 1.02 0.0 0 1 267.54 91.02
  L 267.52 121.35
  Q 267.52 121.96 266.90 121.97
  L 258.13 122.02
  Q 257.21 122.03 257.06 121.12
  L 256.72 119.02
  A 0.37 0.37 0.0 0 0 256.11 118.81
  C 244.54 129.27 229.60 118.80 230.77 104.49
  C 231.88 91.07 245.24 85.15 256.08 92.66
  Q 256.73 93.11 256.85 92.33
  Z
  M 257.10 106.18
  A 7.62 7.62 0.0 0 0 249.48 98.56
  A 7.62 7.62 0.0 0 0 241.86 106.18
  A 7.62 7.62 0.0 0 0 249.48 113.80
  A 7.62 7.62 0.0 0 0 257.10 106.18
  Z"
/>
<path fill="#f1f1f1" d="
  M 302.63 108.49
  Q 303.08 112.85 307.52 113.83
  Q 313.03 115.05 316.59 111.41
  A 1.26 1.26 0.0 0 1 318.07 111.17
  L 323.25 113.79
  Q 325.89 115.13 323.66 117.07
  Q 313.24 126.17 301.78 121.41
  C 288.39 115.84 287.79 97.73 300.32 91.33
  C 308.04 87.39 319.77 89.27 323.88 97.75
  C 325.04 100.14 325.36 103.31 325.79 106.06
  A 1.26 1.26 0.0 0 1 324.54 107.51
  L 303.51 107.51
  A 0.89 0.89 0.0 0 0 302.63 108.49
  Z
  M 302.97 101.88
  L 314.89 101.88
  A 0.11 0.11 0.0 0 0 315.00 101.77
  L 315.00 101.72
  A 5.87 5.60 0.0 0 0 309.13 96.12
  L 308.73 96.12
  A 5.87 5.60 -0.0 0 0 302.86 101.72
  L 302.86 101.77
  A 0.11 0.11 0.0 0 0 302.97 101.88
  Z"
/>
<path fill="#f1f1f1" d="
  M 392.80 113.17
  Q 393.56 112.91 393.90 113.63
  L 396.76 119.51
  Q 397.02 120.05 396.50 120.32
  C 386.15 125.71 372.23 121.92 369.42 109.85
  C 367.02 99.50 374.77 90.52 385.12 89.40
  Q 390.66 88.80 396.59 91.82
  A 0.59 0.59 0.0 0 1 396.85 92.62
  L 393.73 98.87
  A 0.71 0.70 26.4 0 1 392.79 99.18
  C 378.11 91.93 375.32 119.10 392.80 113.17
  Z"
/>
<path fill="#f1f1f1" d="
  M 437.3886 105.9473
  A 19.05 16.93 -0.7 0 1 418.5468 123.1087
  A 19.05 16.93 -0.7 0 1 399.2914 106.4127
  A 19.05 16.93 -0.7 0 1 418.1332 89.2513
  A 19.05 16.93 -0.7 0 1 437.3886 105.9473
  Z
  M 425.99 106.17
  A 7.62 7.62 0.0 0 0 418.37 98.55
  A 7.62 7.62 0.0 0 0 410.75 106.17
  A 7.62 7.62 0.0 0 0 418.37 113.79
  A 7.62 7.62 0.0 0 0 425.99 106.17
  Z"
/>
<path fill="#f1f1f1" d="
  M 454.16 93.02
  Q 458.58 89.47 462.95 89.30
  Q 469.44 89.04 473.76 94.74
  Q 474.12 95.21 474.49 94.75
  Q 478.80 89.41 484.69 89.33
  Q 492.29 89.22 495.32 94.92
  Q 496.91 97.89 496.97 104.77
  Q 497.04 113.17 496.94 121.50
  Q 496.94 122.00 496.44 122.00
  L 486.57 121.99
  Q 486.06 121.99 486.05 121.48
  Q 485.92 112.44 486.02 103.51
  C 486.08 97.99 477.97 95.42 475.54 101.04
  Q 474.94 102.41 474.99 105.56
  Q 475.10 113.53 474.94 121.51
  A 0.48 0.48 0.0 0 1 474.46 121.99
  L 464.53 122.00
  Q 464.05 122.00 464.06 121.52
  Q 464.42 106.86 464.05 101.75
  Q 463.99 101.04 463.10 99.90
  C 461.04 97.29 457.20 97.33 454.94 99.41
  C 453.70 100.55 453.39 103.21 453.40 104.83
  Q 453.43 113.18 453.41 121.53
  Q 453.40 121.96 452.98 121.96
  L 443.86 122.09
  A 0.74 0.73 -0.4 0 1 443.11 121.36
  L 443.12 91.06
  A 1.07 1.07 0.0 0 1 444.20 89.99
  L 452.49 90.08
  A 0.76 0.75 -3.0 0 1 453.23 90.74
  L 453.50 92.75
  Q 453.59 93.47 454.16 93.02
  Z"
/>
<path fill="#f1f1f1" d="
  M 191.36 106.56
  L 198.55 90.38
  A 0.62 0.62 0.0 0 1 199.11 90.01
  L 210.46 90.01
  A 0.62 0.62 0.0 0 1 211.00 90.92
  L 194.55 121.69
  A 0.62 0.62 0.0 0 1 194.00 122.02
  L 187.48 121.97
  A 0.62 0.62 0.0 0 1 186.94 121.64
  L 170.54 90.95
  A 0.62 0.62 0.0 0 1 171.09 90.04
  L 182.46 89.99
  A 0.62 0.62 0.0 0 1 183.02 90.36
  L 190.22 106.56
  A 0.62 0.62 0.0 0 0 191.36 106.56
  Z"
/>
<rect fill="#f1f1f1" x="214.02" y="90.03" width="10.90" height="31.96" rx="0.65"/>
<path fill="#f1f1f1" d="
  M 273.29 128.97
  A 1.76 1.76 0.0 0 0 275.10 127.21
  L 275.04 90.62
  A 0.60 0.59 90.0 0 1 275.63 90.02
  L 285.45 90.03
  Q 286.00 90.03 285.99 90.58
  Q 285.61 109.59 286.03 123.49
  C 286.15 127.36 285.99 131.28 283.88 134.44
  C 280.12 140.03 272.09 140.11 266.49 137.25
  A 0.64 0.64 0.0 0 1 266.19 136.45
  L 268.98 129.30
  A 0.66 0.66 0.0 0 1 269.61 128.88
  L 273.29 128.97
  Z"
/>
<rect fill="#f1f1f1" x="-5.43" y="-15.98" transform="translate(336.53,106.02) rotate(-0.1)" width="10.86" height="31.96" rx="0.64"/>
<path fill="#c7c7c7" d="
  M 111.98 132.72
  C 111.21 136.70 113.53 139.11 113.53 142.38
  Q 113.53 147.03 109.96 149.85
  Q 108.11 151.30 107.43 152.42
  Q 107.20 152.80 106.77 152.93
  Q 106.40 153.04 106.24 153.23
  Q 103.32 156.50 99.38 158.38
  Q 98.93 158.59 98.88 159.30
  Q 98.84 159.88 98.26 159.88
  Q 96.95 159.89 96.89 161.16
  A 0.66 0.65 -8.9 0 1 96.46 161.74
  L 95.39 162.13
  Q 94.90 162.31 94.90 162.83
  L 94.90 170.25
  A 1.09 1.07 -72.6 0 0 95.35 171.13
  Q 99.29 173.92 96.40 173.99
  Q 77.02 174.96 59.85 165.75
  Q 61.14 163.58 59.59 162.02
  Q 59.27 161.70 59.24 161.25
  Q 58.84 153.16 59.50 145.09
  A 2.22 2.22 0.0 0 1 60.57 143.36
  Q 61.70 142.68 61.30 141.52
  L 68.24 153.97
  Q 68.61 154.64 69.06 154.02
  L 72.90 148.78
  A 2.45 2.43 59.4 0 0 73.35 146.99
  L 71.00 129.88
  A 2.09 2.05 -26.7 0 1 71.60 128.11
  Q 79.73 120.10 87.61 112.61
  C 89.78 110.55 95.17 107.57 98.52 108.04
  Q 102.96 108.66 104.88 113.14
  Q 106.90 117.87 111.98 132.72
  Z"
/>
<circle fill="#f1f1f1" cx="356.74" cy="115.88" r="6.99"/>
<path fill="#f1f1f1" d="
  M 131.54 179.08
  Q 128.44 178.67 129.24 176.03
  Q 152.29 163.91 163.92 141.21
  Q 164.58 139.91 165.34 139.27
  A 1.24 1.23 -62.3 0 1 166.26 138.98
  Q 169.37 139.29 172.19 137.99
  A 0.60 0.59 1.2 0 1 172.97 138.80
  Q 159.01 165.81 131.54 179.08
  Z"
/>
</svg>
